<?xml version="1.0" encoding="utf-8"?>
<!-- Generator: Adobe Illustrator 16.0.4, SVG Export Plug-In . SVG Version: 6.00 Build 0)  -->
<!DOCTYPE svg PUBLIC "-//W3C//DTD SVG 1.1//EN" "http://www.w3.org/Graphics/SVG/1.1/DTD/svg11.dtd">
<svg version="1.1" id="Capa_1" xmlns="http://www.w3.org/2000/svg" xmlns:xlink="http://www.w3.org/1999/xlink" x="0px" y="0px"
	 width="52px" height="52px" viewBox="0 0 52 52" enable-background="new 0 0 52 52" xml:space="preserve">
<g>
	<path d="M36.282,3C35.574,3,35,3.896,35,5v4.821c0,2.079-1.661,3.708-4,3.708s-4-1.629-4-3.708V5c0-1.104-0.896-2-2-2h-1
		c-1.104,0-2,0.896-2,2v4.821c0,2.079-1.661,3.708-4,3.708s-4-1.629-4-3.708V5.04c0-1.104-0.898-1.958-1.979-1.733
		C6.097,4.539,1,9.53,1,15.724v10.785v8.343v2.194C1,44.203,7.804,51,14.826,51h22.74C44.587,51,50,44.203,50,37.046V15.724
		C50,8.566,44.587,3,37.564,3C37.564,3,36.99,3,36.282,3z M46,15.724v21.322C46,42.158,42.581,47,37.564,47H14.825
		C9.811,47,5,42.158,5,37.046v-2.194v-9.271v-9.857C5,14.812,4.887,15,7.812,15h36.625C45.844,15,46,14.922,46,15.724z"/>
	<path d="M18,11.675c1.312,0,2-0.83,2-1.854V2.404c0-1.024-0.688-1.854-2-1.854s-2,0.83-2,1.854v7.417
		C16,10.845,16.688,11.675,18,11.675z"/>
	<path d="M31,11.675c1.312,0,2-0.83,2-1.854V2.404c0-1.024-0.688-1.854-2-1.854s-2,0.83-2,1.854v7.417
		C29,10.845,29.688,11.675,31,11.675z"/>
	<path d="M31.488,20h-9.996c-0.872,0-1.543,0.232-2.053,0.465c-0.435,0.197-0.954,0.729-0.954,1.852
		c0,0.814,0.278,1.579,0.827,1.983c0.508,0.372,1.221,0.7,2.18,0.7h5.015c1.104,0,1.368,0.643,0.754,1.561
		c-0.521,0.776-1.001,1.63-1.439,2.402c-0.924,1.633-1.705,3.186-2.318,4.73c-0.615,1.549-1.067,2.871-1.341,3.992
		c-0.283,1.146-0.42,2.025-0.42,2.715c0,0.951,0.228,1.688,0.678,2.205c0.468,0.537,1.089,0.807,1.847,0.807
		c0.778,0,1.417-0.252,1.897-0.746c0.458-0.471,0.792-1.247,1.024-2.373c0.09-0.445,0.199-1.093,0.318-1.938
		c0.119-0.819,0.229-1.487,0.327-2.002c0.097-0.498,0.263-1.144,0.496-1.91c0.558-1.75,1.178-3.25,1.845-4.457
		c0.67-1.211,1.327-2.237,1.954-3.051c0.647-0.838,1.228-1.604,1.733-2.301c0.574-0.786,0.854-1.488,0.854-2.021
		c0.003-0.858-0.286-1.556-0.856-1.954C33.341,20.297,32.564,20,31.488,20z"/>
</g>
</svg>
